PathFileType	4	(X/Y/Z)	Walk6.trc
DataRate	CameraRate	NumFrames	NumMarkers	Units	OrigDataRate	OrigDataStartFrame	OrigNumFrames
200.000000	200.000000	6	59	mm	200.000000	303	490
Frame#	Times		LFHD		RFHD		CLAV		RBack		RACR1		RUA1		RFA1		RWRR		RWRU		RCAR		LACR1		LUA1		LFA1		LWRU		RTH1		RTH3		LTH3		LTH2		LTH4		LLFC		LWRR		LTH1		T10		RElbow		LASI		C7		RTH2		LTB2		LToe		LBHD		LTB4		RTH4		STRN		LMMAL		RTB1		LMT1		RTB2		RBHD		LTB1		LCAL		LCAR		LElbow		LTB3		RPSI		RElbowM		LElbowM		RLFC		LMT5		LLMAL		LPSI		RTB4		RMT1		RASI		RTB3		RCAL		RMT5		RLMAL		RToe		RMMAL
			X1	Y1	Z1	X2	Y2	Z2	X3	Y3	Z3	X4	Y4	Z4	X5	Y5	Z5	X6	Y6	Z6	X7	Y7	Z7	X8	Y8	Z8	X9	Y9	Z9	X10	Y10	Z10	X11	Y11	Z11	X12	Y12	Z12	X13	Y13	Z13	X14	Y14	Z14	X15	Y15	Z15	X16	Y16	Z16	X17	Y17	Z17	X18	Y18	Z18	X19	Y19	Z19	X20	Y20	Z20	X21	Y21	Z21	X22	Y22	Z22	X23	Y23	Z23	X24	Y24	Z24	X25	Y25	Z25	X26	Y26	Z26	X27	Y27	Z27	X28	Y28	Z28	X29	Y29	Z29	X30	Y30	Z30	X31	Y31	Z31	X32	Y32	Z32	X33	Y33	Z33	X34	Y34	Z34	X35	Y35	Z35	X36	Y36	Z36	X37	Y37	Z37	X38	Y38	Z38	X39	Y39	Z39	X40	Y40	Z40	X41	Y41	Z41	X42	Y42	Z42	X43	Y43	Z43	X44	Y44	Z44	X45	Y45	Z45	X46	Y46	Z46	X47	Y47	Z47	X48	Y48	Z48	X49	Y49	Z49	X50	Y50	Z50	X51	Y51	Z51	X52	Y52	Z52	X53	Y53	Z53	X54	Y54	Z54	X55	Y55	Z55	X56	Y56	Z56	X57	Y57	Z57	X58	Y58	Z58	X59	Y59	Z59

303	1.515	-120.05	1441.2	-113.25	-131.49	1431.2	-17.737	-143.52	1189.1	-74.598	-339.69	1152.5	30.374	-225.42	1218.3	100.1	-221.08	1079.7	184.1	-155.26	837.19	225.21	-131.77	738.89	193.05	-171.67	736.71	253.33	-119.53	686.05	248.45	-206.04	1217.4	-268.08	-184.17	1052	-335.91	-131.68	851.59	-375.75	-114.28	741.15	-391.41	-198.23	645.88	144.91	-129.03	493.58	96.131	-249.98	480.77	-227.42	-190.44	569.87	-229.67	-242.52	563.51	-256.9	-238.8	386.25	-187.84	-71.651	758.42	-348.38	-235.94	647.62	-277.21	-372.74	1074.5	-79.163	-219.91	951.23	217.01	-173.04	819.79	-228.79	-285.88	1273.4	-85.151	-114.68	597.05	108.78	-284.89	204.07	-174.09	-183.36	27.738	-98.689	-243.32	1359.1	-145.82	-270.71	203.04	-113.39	-164.82	567.98	123.89	-93.795	1082.7	-60.91	-337.38	72.219	-62.544	-93.274	303.54	35.614	-238.17	32.258	-75.372	-153.84	224.68	72.829	-258.11	1353.8	-13.787	-240.75	285.67	-118.97	-402.98	47.759	-99.93	-62.173	709.35	-392.91	-210.6	932.47	-355.26	-292.54	122.57	-108.43	-418.49	850.06	-15.356	-270.7	917.58	146.85	-241.07	907.41	-290.18	-134.3	408.41	81.434	-278.12	19.723	-163.16	-356.09	59.039	-142.05	-423.37	855.64	-119.95	-116.34	221.12	24.948	-75.062	48.478	-11.945	-164.2	837.98	94.596	-131.27	139.68	15.007	-240.97	56.647	-7.8991	-108.5	34.847	69.978	-188.85	79.084	44.7	-33.166	56.75	30.045	-167.43	90.798	-35.114
304	1.52	-114.31	1440.9	-112.71	-125.75	1430.7	-17.195	-137.75	1188.7	-74.261	-334.03	1152.1	30.478	-219.79	1217.8	100.39	-215.56	1079.3	184.36	-149.98	836.88	226.04	-126.32	738.54	194.1	-166.45	736.42	254.21	-114.28	685.81	249.64	-200.02	1217.2	-267.73	-178.37	1051.9	-335.86	-124.49	851.96	-375.4	-105.79	741.73	-390.55	-192.44	645.4	145.56	-123.68	493.25	95.686	-246.37	480.33	-227.19	-186.36	569.11	-229.39	-238.48	563.05	-256.58	-235.79	385.61	-187.71	-63.394	759.68	-347.54	-231.46	647.17	-276.8	-366.95	1074.1	-79.103	-214.57	950.89	217.45	-167.36	818.82	-228.03	-280.08	1273	-84.87	-109.04	596.58	109.09	-283.42	203.75	-173.97	-183.26	27.691	-98.743	-237.54	1358.8	-145.35	-269.29	202.6	-113.24	-159.2	567.54	124	-88.04	1082.2	-60.819	-337.1	72.388	-62.387	-84.157	304.46	35.61	-238.09	32.242	-75.345	-141.45	223.3	73.06	-252.36	1353.3	-13.331	-238.65	284.98	-118.81	-402.83	48.271	-99.727	-53.263	710.65	-391.92	-204.37	932.16	-355.13	-291.8	122.31	-108.3	-412.68	849.73	-14.588	-265.21	917.13	147.23	-234.53	906.93	-290	-128.83	407.89	81.108	-278.15	19.751	-163.06	-355.88	59.303	-141.9	-417.83	855.58	-119.15	-103.77	221.17	25.248	-55.123	50.325	-10.94	-158.65	837.69	95.116	-115.18	139.17	15.609	-221.31	51.576	-7.3517	-88.189	35.379	70.987	-170.2	76.232	45.354	-13.649	60.337	31.09	-149.1	88.722	-34.457
305	1.525	-108.57	1440.5	-112.16	-120.01	1430.2	-16.647	-131.98	1188.3	-73.919	-328.36	1151.6	30.609	-214.16	1217.3	100.7	-210.04	1078.8	184.64	-144.68	836.54	226.89	-120.84	738.15	195.16	-161.19	736.09	255.09	-109	685.52	250.83	-194.01	1216.9	-267.37	-172.51	1051.8	-335.78	-117.34	852.29	-375.04	-97.353	742.28	-389.69	-186.7	644.83	146.24	-118.56	492.75	95.328	-242.75	479.88	-226.95	-182.26	568.34	-229.15	-234.44	562.58	-256.27	-232.73	384.96	-187.58	-55.197	760.9	-346.7	-227.01	646.7	-276.4	-361.15	1073.7	-79.003	-209.23	950.5	217.9	-161.66	817.82	-227.26	-274.29	1272.6	-84.565	-103.51	595.91	109.44	-281.93	203.43	-173.84	-183.15	27.645	-98.81	-231.76	1358.4	-144.87	-267.83	202.16	-113.1	-153.73	566.97	124.17	-82.269	1081.6	-60.8	-336.79	72.586	-62.215	-75.283	305.4	35.633	-238	32.226	-75.319	-129.24	222.07	73.294	-246.6	1352.8	-12.861	-236.49	284.28	-118.66	-402.69	48.829	-99.503	-44.438	711.9	-390.93	-198.15	931.83	-354.99	-291.04	122.07	-108.17	-406.82	849.38	-13.732	-259.69	916.65	147.61	-228.02	906.41	-289.81	-123.61	407.25	80.809	-278.19	19.779	-162.96	-355.67	59.594	-141.74	-412.27	855.52	-118.28	-91.41	221.36	25.563	-35.494	52.518	-9.9376	-153.03	837.32	95.628	-99.304	138.93	16.226	-201.71	46.936	-6.8413	-68.155	36.295	71.983	-151.69	73.761	45.991	5.4894	64.228	32.128	-130.92	87.005	-33.814
306	1.53	-102.83	1440	-111.6	-114.27	1429.7	-16.093	-126.2	1187.8	-73.568	-322.67	1151.1	30.773	-208.53	1216.7	101.03	-204.52	1078.2	184.94	-139.35	836.15	227.76	-115.33	737.73	196.22	-155.91	735.72	255.97	-103.68	685.19	252.02	-188.03	1216.6	-266.99	-166.6	1051.6	-335.65	-110.24	852.59	-374.67	-88.988	742.81	-388.83	-181.02	644.18	146.94	-113.68	492.07	95.073	-239.09	479.42	-226.7	-178.15	567.55	-228.94	-230.41	562.1	-255.95	-229.62	384.29	-187.46	-47.064	762.08	-345.87	-222.58	646.21	-275.99	-355.35	1073.2	-78.859	-203.87	950.07	218.36	-155.93	816.78	-226.49	-268.5	1272.1	-84.234	-98.106	595.04	109.83	-280.43	203.12	-173.71	-183.05	27.598	-98.889	-225.99	1357.9	-144.37	-266.33	201.72	-112.96	-148.42	566.27	124.41	-76.483	1081	-60.843	-336.47	72.814	-62.03	-66.647	306.35	35.677	-237.91	32.209	-75.295	-117.24	221	73.531	-240.84	1352.3	-12.375	-234.24	283.56	-118.53	-402.53	49.434	-99.258	-35.7	713.1	-389.93	-191.94	931.48	-354.84	-290.27	121.83	-108.04	-400.92	849.01	-12.794	-254.15	916.13	148	-221.53	905.88	-289.61	-118.62	406.49	80.541	-278.24	19.808	-162.84	-355.45	59.916	-141.56	-406.71	855.46	-117.34	-79.283	221.7	25.885	-16.249	55.028	-8.9636	-147.33	836.87	96.126	-83.689	138.95	16.846	-182.27	42.746	-6.3628	-48.468	37.573	72.945	-133.4	71.679	46.609	24.19	68.383	33.127	-112.97	85.654	-33.191
307	1.535	-97.093	1439.6	-111.04	-108.53	1429.2	-15.531	-120.42	1187.3	-73.205	-316.98	1150.5	30.973	-202.89	1216.2	101.39	-199	1077.7	185.28	-134	835.73	228.64	-109.77	737.28	197.28	-150.6	735.32	256.84	-98.331	684.83	253.21	-182.07	1216.2	-266.58	-160.64	1051.4	-335.49	-103.18	852.86	-374.29	-80.693	743.32	-387.96	-175.41	643.44	147.66	-109.02	491.22	94.936	-235.4	478.95	-226.46	-174.03	566.76	-228.76	-226.36	561.6	-255.63	-226.44	383.62	-187.34	-39.001	763.22	-345.03	-218.15	645.71	-275.59	-349.54	1072.7	-78.666	-198.49	949.6	218.83	-150.19	815.72	-225.73	-262.71	1271.6	-83.873	-92.817	593.99	110.26	-278.9	202.81	-173.57	-182.94	27.551	-98.98	-220.23	1357.4	-143.86	-264.78	201.28	-112.82	-143.25	565.45	124.72	-70.684	1080.4	-60.935	-336.13	73.071	-61.831	-58.242	307.32	35.731	-237.81	32.193	-75.272	-105.46	220.1	73.766	-235.09	1351.7	-11.872	-231.93	282.84	-118.42	-402.37	50.093	-98.993	-27.054	714.26	-388.92	-185.74	931.09	-354.66	-289.47	121.61	-107.9	-394.96	848.63	-11.779	-248.58	915.57	148.4	-215.07	905.32	-289.4	-113.83	405.62	80.307	-278.29	19.837	-162.7	-355.23	60.27	-141.38	-401.13	855.41	-116.34	-67.417	222.17	26.204	2.5332	57.817	-8.0416	-141.55	836.34	96.604	-68.392	139.23	17.459	-163.08	39.018	-5.9101	-29.199	39.18	73.851	-115.38	69.981	47.204	42.391	72.755	34.056	-95.341	84.662	-32.595
308	1.54	-91.36	1439.1	-110.47	-102.79	1428.7	-14.961	-114.63	1186.7	-72.829	-311.27	1149.9	31.216	-197.24	1215.6	101.77	-193.48	1077.1	185.64	-128.62	835.27	229.53	-104.19	736.79	198.35	-145.25	734.87	257.71	-92.949	684.42	254.38	-176.14	1215.8	-266.16	-154.63	1051.2	-335.28	-96.175	853.1	-373.89	-72.472	743.81	-387.08	-169.86	642.63	148.38	-104.58	490.2	94.929	-231.68	478.46	-226.22	-169.88	565.96	-228.61	-222.29	561.09	-255.32	-223.21	382.93	-187.22	-31.012	764.33	-344.2	-213.73	645.2	-275.19	-343.72	1072.1	-78.419	-193.1	949.08	219.31	-144.43	814.65	-224.98	-256.94	1271	-83.48	-87.645	592.76	110.73	-277.35	202.52	-173.42	-182.82	27.503	-99.082	-214.46	1356.9	-143.33	-263.19	200.84	-112.68	-138.24	564.52	125.11	-64.871	1079.8	-61.064	-335.77	73.359	-61.622	-50.062	308.29	35.784	-237.71	32.175	-75.248	-93.914	219.36	73.998	-229.33	1351.1	-11.35	-229.54	282.1	-118.33	-402.2	50.808	-98.708	-18.504	715.37	-387.91	-179.54	930.69	-354.48	-288.66	121.41	-107.76	-388.95	848.24	-10.698	-242.98	914.98	148.81	-208.65	904.74	-289.2	-109.21	404.66	80.109	-278.35	19.866	-162.55	-355.01	60.661	-141.17	-395.54	855.36	-115.28	-55.836	222.77	26.511	20.774	60.836	-7.1947	-135.7	835.73	97.058	-53.471	139.75	18.051	-144.25	35.753	-5.4752	-10.421	41.074	74.683	-97.739	68.658	47.772	60.033	77.281	34.886	-78.116	84.012	-32.031
